<svg width="160" height="160" viewBox="0 0 160 160" fill="none" xmlns="http://www.w3.org/2000/svg">
<g clip-path="url(#clip0_2_2)">
<path d="M160 0H0V160H160V0Z" fill="#EDEEF0"/>
<g opacity="0.95">
<g clip-path="url(#clip1_2_2)">
<path d="M25.4921 5.46012L10.233 8.70354C8.28819 9.11692 7.04675 11.0286 7.46012 12.9734L14.6954 47.0129C15.1088 48.9577 17.0205 50.1991 18.9653 49.7857L34.2244 46.5423C36.1691 46.1289 37.4106 44.2173 36.9972 42.2725L29.7619 8.23297C29.3485 6.28819 27.4369 5.04675 25.4921 5.46012Z" stroke="#B2B2B2" stroke-width="1.32" stroke-linecap="round" stroke-linejoin="round"/>
<path d="M25.441 10.9916L12.5295 13.736C11.5571 13.9427 10.9364 14.8986 11.143 15.871L15.6339 36.9989C15.8406 37.9713 16.7965 38.5921 17.7688 38.3854L30.6804 35.6409C31.6528 35.4342 32.2735 34.4784 32.0668 33.506L27.5759 12.378C27.3692 11.4057 26.4134 10.7849 25.441 10.9916Z" stroke="#B2B2B2" stroke-width="0.66" stroke-linecap="round" stroke-linejoin="round"/>
<path d="M21.296 8.80565L15.4271 10.0531C15.1029 10.122 14.896 10.4406 14.9649 10.7648C15.0338 11.0889 15.3524 11.2958 15.6766 11.2269L21.5454 9.97943C21.8696 9.91054 22.0765 9.59193 22.0076 9.2678C21.9387 8.94367 21.6201 8.73676 21.296 8.80565Z" fill="#C9C9C9" fill-opacity="0.85"/>
<path d="M25.2725 41.943C26.0504 41.7777 26.547 41.013 26.3816 40.2351C26.2163 39.4572 25.4516 38.9606 24.6737 39.1259C23.8958 39.2913 23.3992 40.056 23.5646 40.8339C23.7299 41.6118 24.4946 42.1084 25.2725 41.943Z" stroke="#B2B2B2" stroke-width="0.66" stroke-linecap="round" stroke-linejoin="round"/>
</g>
</g>
<g opacity="0.95">
<g clip-path="url(#clip2_2_2)">
<path d="M84.2472 8.94237L68.6868 4.73204C66.7036 4.19543 64.6609 5.36811 64.1243 7.35129L54.732 42.0631C54.1954 44.0462 55.3681 46.0889 57.3513 46.6255L72.9117 50.8359C74.8949 51.3725 76.9376 50.1998 77.4742 48.2166L86.8665 13.5049C87.4031 11.5217 86.2304 9.47898 84.2472 8.94237Z" stroke="#B2B2B2" stroke-width="1.364" stroke-linecap="round" stroke-linejoin="round"/>
<path d="M81.5929 14.0048L68.4263 10.4422C67.4347 10.1739 66.4134 10.7602 66.1451 11.7518L60.3154 33.2971C60.0471 34.2887 60.6334 35.31 61.625 35.5783L74.7916 39.1409C75.7832 39.4092 76.8045 38.8229 77.0728 37.8313L82.9025 16.286C83.1708 15.2945 82.5845 14.2731 81.5929 14.0048Z" stroke="#B2B2B2" stroke-width="0.682" stroke-linecap="round" stroke-linejoin="round"/>
<path d="M78.8117 10.0408L72.8269 8.42144C72.4964 8.33201 72.1559 8.52745 72.0665 8.85798C71.977 9.18852 72.1725 9.52896 72.503 9.6184L78.4878 11.2378C78.8183 11.3272 79.1588 11.1317 79.2482 10.8012C79.3377 10.4707 79.1422 10.1302 78.8117 10.0408Z" fill="#C9C9C9" fill-opacity="0.85"/>
<path d="M66.848 42.3868C67.6413 42.6015 68.4584 42.1324 68.673 41.3391C68.8877 40.5459 68.4186 39.7288 67.6253 39.5141C66.832 39.2995 66.015 39.7686 65.8003 40.5618C65.5857 41.3551 66.0547 42.1722 66.848 42.3868Z" stroke="#B2B2B2" stroke-width="0.682" stroke-linecap="round" stroke-linejoin="round"/>
</g>
</g>
<g opacity="0.95">
<g clip-path="url(#clip3_2_2)">
<path d="M115.754 16.0357L100.24 17.6664C98.2624 17.8742 96.8279 19.6456 97.0357 21.623L100.673 56.2323C100.881 58.2097 102.653 59.6441 104.63 59.4363L120.144 57.8057C122.122 57.5978 123.556 55.8264 123.348 53.8491L119.711 19.2397C119.503 17.2624 117.732 15.8279 115.754 16.0357Z" stroke="#B2B2B2" stroke-width="1.32" stroke-linecap="round" stroke-linejoin="round"/>
<path d="M115.125 21.5316L101.998 22.9114C101.009 23.0153 100.292 23.901 100.396 24.8896L102.653 46.3713C102.757 47.36 103.643 48.0772 104.632 47.9733L117.759 46.5935C118.748 46.4896 119.465 45.6039 119.361 44.6152L117.104 23.1336C117 22.1449 116.114 21.4277 115.125 21.5316Z" stroke="#B2B2B2" stroke-width="0.66" stroke-linecap="round" stroke-linejoin="round"/>
<path d="M111.231 18.9243L105.264 19.5515C104.935 19.5861 104.696 19.8814 104.73 20.2109C104.765 20.5405 105.06 20.7796 105.39 20.7449L111.357 20.1178C111.686 20.0831 111.925 19.7879 111.891 19.4583C111.856 19.1288 111.561 18.8897 111.231 18.9243Z" fill="#C9C9C9" fill-opacity="0.85"/>
<path d="M111.722 52.2958C112.513 52.2127 113.087 51.5041 113.004 50.7132C112.921 49.9222 112.212 49.3485 111.421 49.4316C110.63 49.5147 110.057 50.2233 110.14 51.0142C110.223 51.8052 110.931 52.3789 111.722 52.2958Z" stroke="#B2B2B2" stroke-width="0.66" stroke-linecap="round" stroke-linejoin="round"/>
</g>
</g>
<g opacity="0.95">
<g clip-path="url(#clip4_2_2)">
<path d="M152.86 4.3798L137.782 4.17804C135.86 4.15233 134.281 5.68939 134.256 7.61117L133.805 41.2482C133.78 43.1699 135.317 44.7487 137.239 44.7744L152.317 44.9762C154.239 45.0019 155.818 43.4648 155.844 41.543L156.294 7.90605C156.319 5.98427 154.782 4.40552 152.86 4.3798Z" stroke="#B2B2B2" stroke-width="1.276" stroke-linecap="round" stroke-linejoin="round"/>
<path d="M151.631 9.58382L138.872 9.4131C137.911 9.40024 137.122 10.1688 137.109 11.1297L136.829 32.0078C136.817 32.9687 137.585 33.7581 138.546 33.7709L151.305 33.9416C152.266 33.9545 153.055 33.186 153.068 32.2251L153.347 11.3469C153.36 10.3861 152.592 9.59667 151.631 9.58382Z" stroke="#B2B2B2" stroke-width="0.638" stroke-linecap="round" stroke-linejoin="round"/>
<path d="M148.19 6.63751L142.39 6.55991C142.07 6.55563 141.807 6.81181 141.803 7.1321C141.798 7.4524 142.055 7.71553 142.375 7.71981L148.174 7.79741C148.495 7.8017 148.758 7.54552 148.762 7.22522C148.766 6.90493 148.51 6.6418 148.19 6.63751Z" fill="#C9C9C9" fill-opacity="0.85"/>
<path d="M144.86 38.7278C145.629 38.7381 146.26 38.1233 146.271 37.3546C146.281 36.5859 145.666 35.9544 144.897 35.9441C144.129 35.9338 143.497 36.5486 143.487 37.3173C143.477 38.0861 144.091 38.7176 144.86 38.7278Z" stroke="#B2B2B2" stroke-width="0.638" stroke-linecap="round" stroke-linejoin="round"/>
</g>
</g>
<g opacity="0.95">
<g clip-path="url(#clip5_2_2)">
<path d="M49.7465 58.8708L35.4061 51.5082C33.5784 50.5699 31.3361 51.2908 30.3977 53.1185L13.9735 85.1086C13.0352 86.9363 13.7561 89.1786 15.5838 90.117L29.9242 97.4795C31.7519 98.4179 33.9942 97.697 34.9326 95.8693L51.3568 63.8792C52.2951 62.0515 51.5742 59.8092 49.7465 58.8708Z" stroke="#B2B2B2" stroke-width="1.364" stroke-linecap="round" stroke-linejoin="round"/>
<path d="M46.0948 63.2684L33.9606 57.0386C33.0468 56.5694 31.9256 56.9298 31.4564 57.8437L21.2621 77.6996C20.7929 78.6135 21.1534 79.7346 22.0672 80.2038L34.2014 86.4337C35.1153 86.9029 36.2364 86.5424 36.7056 85.6285L46.8999 65.7726C47.3691 64.8588 47.0087 63.7376 46.0948 63.2684Z" stroke="#B2B2B2" stroke-width="0.682" stroke-linecap="round" stroke-linejoin="round"/>
<path d="M44.2014 58.8116L38.6858 55.9798C38.3812 55.8235 38.0075 55.9436 37.8511 56.2482C37.6947 56.5528 37.8149 56.9266 38.1195 57.083L43.635 59.9147C43.9396 60.0711 44.3134 59.951 44.4697 59.6463C44.6261 59.3417 44.506 58.968 44.2014 58.8116Z" fill="#C9C9C9" fill-opacity="0.85"/>
<path d="M25.7557 87.9518C26.4867 88.3271 27.3837 88.0388 27.759 87.3077C28.1343 86.5766 27.846 85.6797 27.1149 85.3043C26.3838 84.929 25.4869 85.2174 25.1115 85.9484C24.7362 86.6795 25.0246 87.5764 25.7557 87.9518Z" stroke="#B2B2B2" stroke-width="0.682" stroke-linecap="round" stroke-linejoin="round"/>
</g>
</g>
<g opacity="0.95">
<g clip-path="url(#clip6_2_2)">
<path d="M75.6501 57.2496L60.2422 59.69C58.2784 60.001 56.9386 61.8451 57.2496 63.8089L62.6936 98.1804C63.0046 100.144 64.8487 101.484 66.8124 101.173L82.2203 98.7325C84.1841 98.4215 85.5239 96.5774 85.2129 94.6137L79.7689 60.2421C79.4579 58.2784 77.6138 56.9386 75.6501 57.2496Z" stroke="#B2B2B2" stroke-width="1.32" stroke-linecap="round" stroke-linejoin="round"/>
<path d="M75.3096 62.7709L62.2721 64.8358C61.2903 64.9913 60.6204 65.9134 60.7759 66.8952L64.1549 88.2293C64.3104 89.2112 65.2324 89.8811 66.2143 89.7255L79.2518 87.6606C80.2336 87.5051 80.9035 86.5831 80.748 85.6012L77.369 64.2671C77.2135 63.2853 76.2915 62.6154 75.3096 62.7709Z" stroke="#B2B2B2" stroke-width="0.66" stroke-linecap="round" stroke-linejoin="round"/>
<path d="M71.2846 60.371L65.3585 61.3096C65.0312 61.3614 64.8079 61.6688 64.8597 61.996C64.9116 62.3233 65.2189 62.5466 65.5462 62.4948L71.4723 61.5562C71.7996 61.5044 72.0229 61.197 71.9711 60.8697C71.9193 60.5424 71.6119 60.3191 71.2846 60.371Z" fill="#C9C9C9" fill-opacity="0.85"/>
<path d="M73.5215 93.671C74.307 93.5466 74.8429 92.809 74.7185 92.0235C74.594 91.238 73.8564 90.7021 73.0709 90.8265C72.2854 90.9509 71.7495 91.6885 71.8739 92.474C71.9983 93.2595 72.736 93.7954 73.5215 93.671Z" stroke="#B2B2B2" stroke-width="0.66" stroke-linecap="round" stroke-linejoin="round"/>
</g>
</g>
<g opacity="0.95">
<g clip-path="url(#clip7_2_2)">
<path d="M118.165 67.8603L102.397 64.5088C100.388 64.0816 98.4124 65.3645 97.9853 67.3741L90.5088 102.548C90.0816 104.558 91.3645 106.533 93.3741 106.96L109.142 110.312C111.151 110.739 113.127 109.456 113.554 107.447L121.03 72.2725C121.458 70.2629 120.175 68.2875 118.165 67.8603Z" stroke="#B2B2B2" stroke-width="1.364" stroke-linecap="round" stroke-linejoin="round"/>
<path d="M115.792 73.0606L102.45 70.2247C101.445 70.0111 100.458 70.6525 100.244 71.6573L95.6035 93.4896C95.3899 94.4944 96.0314 95.482 97.0362 95.6956L110.378 98.5315C111.383 98.7451 112.371 98.1037 112.584 97.0989L117.225 75.2666C117.438 74.2618 116.797 73.2742 115.792 73.0606Z" stroke="#B2B2B2" stroke-width="0.682" stroke-linecap="round" stroke-linejoin="round"/>
<path d="M112.798 69.2549L106.733 67.9658C106.398 67.8946 106.069 68.1084 105.998 68.4434C105.927 68.7783 106.141 69.1075 106.476 69.1787L112.54 70.4678C112.875 70.539 113.204 70.3252 113.275 69.9902C113.347 69.6553 113.133 69.3261 112.798 69.2549Z" fill="#C9C9C9" fill-opacity="0.85"/>
<path d="M102.624 102.208C103.428 102.379 104.218 101.866 104.389 101.062C104.56 100.258 104.047 99.4677 103.243 99.2968C102.439 99.1259 101.649 99.6391 101.478 100.443C101.307 101.247 101.82 102.037 102.624 102.208Z" stroke="#B2B2B2" stroke-width="0.682" stroke-linecap="round" stroke-linejoin="round"/>
</g>
</g>
<g opacity="0.95">
<g clip-path="url(#clip8_2_2)">
<path d="M142.068 58.0705L127.1 59.9083C125.193 60.1425 123.836 61.8788 124.07 63.7864L128.17 97.1757C128.404 99.0833 130.141 100.44 132.048 100.206L147.016 98.3678C148.924 98.1336 150.28 96.3973 150.046 94.4897L145.946 61.1004C145.712 59.1928 143.976 57.8362 142.068 58.0705Z" stroke="#B2B2B2" stroke-width="1.276" stroke-linecap="round" stroke-linejoin="round"/>
<path d="M141.553 63.3929L128.888 64.948C127.934 65.0651 127.256 65.9333 127.373 66.8871L129.918 87.6114C130.035 88.5652 130.903 89.2435 131.857 89.1264L144.522 87.5714C145.475 87.4542 146.154 86.5861 146.037 85.6323L143.492 64.9079C143.375 63.9541 142.507 63.2758 141.553 63.3929Z" stroke="#B2B2B2" stroke-width="0.638" stroke-linecap="round" stroke-linejoin="round"/>
<path d="M137.745 60.9387L131.989 61.6455C131.671 61.6845 131.445 61.9739 131.484 62.2919C131.523 62.6098 131.812 62.8359 132.13 62.7968L137.887 62.09C138.205 62.051 138.431 61.7616 138.392 61.4436C138.353 61.1257 138.063 60.8996 137.745 60.9387Z" fill="#C9C9C9" fill-opacity="0.85"/>
<path d="M138.783 93.1846C139.546 93.0909 140.089 92.3963 139.995 91.6333C139.901 90.8702 139.207 90.3276 138.444 90.4213C137.681 90.515 137.138 91.2095 137.232 91.9726C137.325 92.7356 138.02 93.2783 138.783 93.1846Z" stroke="#B2B2B2" stroke-width="0.638" stroke-linecap="round" stroke-linejoin="round"/>
</g>
</g>
<g opacity="0.95">
<g clip-path="url(#clip9_2_2)">
<path d="M26.3472 108.218L10.3841 110.461C8.34955 110.747 6.93205 112.628 7.21798 114.663L12.2226 150.273C12.5086 152.308 14.3897 153.725 16.4242 153.439L32.3873 151.196C34.4218 150.91 35.8393 149.029 35.5534 146.994L30.5487 111.384C30.2628 109.35 28.3817 107.932 26.3472 108.218Z" stroke="#B2B2B2" stroke-width="1.364" stroke-linecap="round" stroke-linejoin="round"/>
<path d="M25.8958 113.916L12.3886 115.815C11.3713 115.958 10.6626 116.898 10.8055 117.915L13.9119 140.018C14.0548 141.035 14.9954 141.744 16.0126 141.601L29.5199 139.703C30.5372 139.56 31.2459 138.619 31.1029 137.602L27.9966 115.499C27.8536 114.482 26.9131 113.773 25.8958 113.916Z" stroke="#B2B2B2" stroke-width="0.682" stroke-linecap="round" stroke-linejoin="round"/>
<path d="M21.7806 111.364L15.6409 112.227C15.3018 112.275 15.0656 112.588 15.1132 112.927C15.1609 113.266 15.4744 113.503 15.8135 113.455L21.9532 112.592C22.2922 112.544 22.5285 112.231 22.4808 111.892C22.4332 111.553 22.1197 111.316 21.7806 111.364Z" fill="#C9C9C9" fill-opacity="0.85"/>
<path d="M23.4911 145.809C24.3049 145.695 24.8719 144.943 24.7575 144.129C24.6431 143.315 23.8907 142.748 23.0769 142.862C22.2631 142.977 21.6961 143.729 21.8105 144.543C21.9248 145.357 22.6773 145.924 23.4911 145.809Z" stroke="#B2B2B2" stroke-width="0.682" stroke-linecap="round" stroke-linejoin="round"/>
</g>
</g>
<g opacity="0.95">
<g clip-path="url(#clip10_2_2)">
<path d="M67.3202 107.734L51.7365 107.021C49.7504 106.93 48.0666 108.467 47.9757 110.453L46.3851 145.216C46.2942 147.203 47.8306 148.886 49.8168 148.977L65.4005 149.69C67.3866 149.781 69.0704 148.245 69.1612 146.259L70.7519 111.495C70.8428 109.509 69.3064 107.825 67.3202 107.734Z" stroke="#B2B2B2" stroke-width="1.32" stroke-linecap="round" stroke-linejoin="round"/>
<path d="M65.8747 113.074L52.6885 112.47C51.6954 112.425 50.8535 113.193 50.8081 114.186L49.8208 135.764C49.7753 136.757 50.5435 137.598 51.5366 137.644L64.7228 138.247C65.7159 138.293 66.5578 137.524 66.6032 136.531L67.5905 114.954C67.6359 113.961 66.8677 113.119 65.8747 113.074Z" stroke="#B2B2B2" stroke-width="0.66" stroke-linecap="round" stroke-linejoin="round"/>
<path d="M62.4155 109.912L56.4218 109.638C56.0908 109.623 55.8102 109.879 55.795 110.21C55.7799 110.541 56.0359 110.822 56.367 110.837L62.3607 111.111C62.6917 111.126 62.9723 110.87 62.9875 110.539C63.0026 110.208 62.7466 109.927 62.4155 109.912Z" fill="#C9C9C9" fill-opacity="0.85"/>
<path d="M57.8993 142.98C58.6938 143.017 59.3673 142.402 59.4036 141.608C59.44 140.813 58.8254 140.14 58.031 140.103C57.2365 140.067 56.563 140.682 56.5266 141.476C56.4903 142.27 57.1049 142.944 57.8993 142.98Z" stroke="#B2B2B2" stroke-width="0.66" stroke-linecap="round" stroke-linejoin="round"/>
</g>
</g>
<g opacity="0.95">
<g clip-path="url(#clip11_2_2)">
<path d="M111.436 112.996L95.3775 114.401C93.3308 114.58 91.8168 116.384 91.9959 118.431L95.13 154.254C95.3091 156.301 97.1134 157.815 99.1601 157.636L115.219 156.231C117.265 156.052 118.779 154.247 118.6 152.201L115.466 116.378C115.287 114.331 113.483 112.817 111.436 112.996Z" stroke="#B2B2B2" stroke-width="1.364" stroke-linecap="round" stroke-linejoin="round"/>
<path d="M110.687 118.663L97.0991 119.852C96.0758 119.941 95.3188 120.843 95.4083 121.867L97.3536 144.102C97.4432 145.125 98.3453 145.882 99.3687 145.792L112.957 144.604C113.98 144.514 114.737 143.612 114.648 142.589L112.702 120.354C112.613 119.33 111.711 118.573 110.687 118.663Z" stroke="#B2B2B2" stroke-width="0.682" stroke-linecap="round" stroke-linejoin="round"/>
<path d="M106.711 115.899L100.535 116.439C100.194 116.469 99.9414 116.77 99.9712 117.111C100.001 117.452 100.302 117.704 100.643 117.674L106.819 117.134C107.16 117.104 107.413 116.803 107.383 116.462C107.353 116.121 107.052 115.869 106.711 115.899Z" fill="#C9C9C9" fill-opacity="0.85"/>
<path d="M106.617 150.386C107.435 150.315 108.041 149.593 107.969 148.774C107.898 147.956 107.176 147.35 106.357 147.422C105.539 147.493 104.933 148.215 105.005 149.034C105.076 149.852 105.798 150.458 106.617 150.386Z" stroke="#B2B2B2" stroke-width="0.682" stroke-linecap="round" stroke-linejoin="round"/>
</g>
</g>
<g opacity="0.95">
<g clip-path="url(#clip12_2_2)">
<path d="M155.016 109.908L140.048 108.07C138.141 107.836 136.404 109.193 136.17 111.1L132.07 144.49C131.836 146.397 133.193 148.134 135.1 148.368L150.068 150.206C151.976 150.44 153.712 149.083 153.946 147.176L158.046 113.786C158.28 111.879 156.924 110.142 155.016 109.908Z" stroke="#B2B2B2" stroke-width="1.276" stroke-linecap="round" stroke-linejoin="round"/>
<path d="M153.228 114.948L140.564 113.393C139.61 113.276 138.742 113.954 138.624 114.908L136.08 135.632C135.963 136.586 136.641 137.454 137.595 137.571L150.26 139.126C151.213 139.244 152.082 138.565 152.199 137.611L154.743 116.887C154.86 115.933 154.182 115.065 153.228 114.948Z" stroke="#B2B2B2" stroke-width="0.638" stroke-linecap="round" stroke-linejoin="round"/>
<path d="M150.128 111.645L144.371 110.939C144.053 110.9 143.764 111.126 143.725 111.444C143.686 111.762 143.912 112.051 144.23 112.09L149.986 112.797C150.304 112.836 150.594 112.61 150.633 112.292C150.672 111.974 150.446 111.685 150.128 111.645Z" fill="#C9C9C9" fill-opacity="0.85"/>
<path d="M143.333 143.185C144.097 143.278 144.791 142.736 144.885 141.973C144.978 141.21 144.436 140.515 143.673 140.421C142.91 140.328 142.215 140.87 142.121 141.633C142.028 142.396 142.57 143.091 143.333 143.185Z" stroke="#B2B2B2" stroke-width="0.638" stroke-linecap="round" stroke-linejoin="round"/>
</g>
</g>
</g>
<defs>
<clipPath id="clip0_2_2">
<rect width="160" height="160" fill="white"/>
</clipPath>
<clipPath id="clip1_2_2">
<rect width="24" height="43.2" fill="white" transform="translate(6 8.98988) rotate(-12)"/>
</clipPath>
<clipPath id="clip2_2_2">
<rect width="24.8" height="44.64" fill="white" transform="translate(64.6594 3) rotate(15.1405)"/>
</clipPath>
<clipPath id="clip3_2_2">
<rect width="24" height="43.2" fill="white" transform="translate(96 17.5087) rotate(-6)"/>
</clipPath>
<clipPath id="clip4_2_2">
<rect width="23.2" height="41.76" fill="white" transform="translate(133.73 3.54378) rotate(0.766598)"/>
</clipPath>
<clipPath id="clip5_2_2">
<rect width="24.8" height="44.64" fill="white" transform="translate(31.8284 48.9744) rotate(27.1767)"/>
</clipPath>
<clipPath id="clip6_2_2">
<rect width="24" height="43.2" fill="white" transform="translate(56 59.7544) rotate(-9)"/>
</clipPath>
<clipPath id="clip7_2_2">
<rect width="24.8" height="44.64" fill="white" transform="translate(98.2812 63) rotate(12)"/>
</clipPath>
<clipPath id="clip8_2_2">
<rect width="23.2" height="41.76" fill="white" transform="translate(123 59.8274) rotate(-7)"/>
</clipPath>
<clipPath id="clip9_2_2">
<rect width="24.8" height="44.64" fill="white" transform="translate(6 110.451) rotate(-8)"/>
</clipPath>
<clipPath id="clip10_2_2">
<rect width="24" height="43.2" fill="white" transform="translate(47.5683 106.23) rotate(2.61983)"/>
</clipPath>
<clipPath id="clip11_2_2">
<rect width="24.8" height="44.64" fill="white" transform="translate(91 114.161) rotate(-5)"/>
</clipPath>
<clipPath id="clip12_2_2">
<rect width="23.2" height="41.76" fill="white" transform="translate(136.089 107) rotate(7)"/>
</clipPath>
</defs>
</svg>
